<mxfile host="app.diagrams.net" agent="Mozilla/5.0 (Windows NT 10.0; Win64; x64) AppleWebKit/537.36 (KHTML, like Gecko) Chrome/134.0.0.0 Safari/537.36" version="26.1.1">
  <diagram name="Page-1" id="r7K87Xx96LxDioY1liJ7">
    <mxGraphModel grid="1" page="1" gridSize="10" guides="1" tooltips="1" connect="1" arrows="1" fold="1" pageScale="1" pageWidth="827" pageHeight="1169" background="none" math="0" shadow="0">
      <root>
        <mxCell id="0" />
        <mxCell id="1" parent="0" />
        <mxCell id="HOlrTyPcvEbu_Fj6PGsl-2" value="&lt;div style=&quot;line-height: 24px; white-space: pre;&quot;&gt;&lt;span style=&quot;background-color: rgb(255, 255, 255);&quot;&gt;&lt;font face=&quot;Verdana&quot; style=&quot;color: rgb(0, 0, 0);&quot;&gt;&amp;nbsp;Client (UI)&lt;/font&gt;&lt;/span&gt;&lt;/div&gt;" style="rounded=1;whiteSpace=wrap;html=1;" vertex="1" parent="1">
          <mxGeometry x="344" y="20" width="140" height="60" as="geometry" />
        </mxCell>
        <mxCell id="HOlrTyPcvEbu_Fj6PGsl-4" value="&lt;font face=&quot;Verdana&quot;&gt;API Service&lt;br&gt;(Spring Boot REST)&lt;/font&gt;" style="rounded=1;whiteSpace=wrap;html=1;" vertex="1" parent="1">
          <mxGeometry x="269" y="120" width="290" height="60" as="geometry" />
        </mxCell>
        <mxCell id="HOlrTyPcvEbu_Fj6PGsl-5" value="PostgreSQL&amp;nbsp;&lt;br&gt;(Job Metadata DB)" style="rounded=1;whiteSpace=wrap;html=1;" vertex="1" parent="1">
          <mxGeometry x="254" y="230" width="320" height="60" as="geometry" />
        </mxCell>
        <mxCell id="HOlrTyPcvEbu_Fj6PGsl-6" value="Redis Queue&lt;br&gt;(delay, priority, DAG)" style="rounded=1;whiteSpace=wrap;html=1;" vertex="1" parent="1">
          <mxGeometry x="321" y="350" width="186" height="60" as="geometry" />
        </mxCell>
        <mxCell id="HOlrTyPcvEbu_Fj6PGsl-7" value="Worker Pool&lt;br&gt;(Task Executors&lt;span style=&quot;background-color: transparent; color: light-dark(rgb(0, 0, 0), rgb(255, 255, 255));&quot;&gt;)&lt;/span&gt;" style="rounded=1;whiteSpace=wrap;html=1;" vertex="1" parent="1">
          <mxGeometry x="354" y="460" width="120" height="60" as="geometry" />
        </mxCell>
        <mxCell id="HOlrTyPcvEbu_Fj6PGsl-8" value="Kafka / DLQ&lt;br&gt;(Job failures, logs)" style="rounded=1;whiteSpace=wrap;html=1;" vertex="1" parent="1">
          <mxGeometry x="354" y="570" width="120" height="60" as="geometry" />
        </mxCell>
        <mxCell id="HOlrTyPcvEbu_Fj6PGsl-9" value="Notifier Service&lt;br&gt;(Email / Webhook)" style="rounded=1;whiteSpace=wrap;html=1;" vertex="1" parent="1">
          <mxGeometry x="354" y="680" width="120" height="60" as="geometry" />
        </mxCell>
        <mxCell id="HOlrTyPcvEbu_Fj6PGsl-10" value="" style="endArrow=classic;html=1;rounded=0;exitX=0.5;exitY=1;exitDx=0;exitDy=0;entryX=0.5;entryY=0;entryDx=0;entryDy=0;" edge="1" parent="1" source="HOlrTyPcvEbu_Fj6PGsl-2" target="HOlrTyPcvEbu_Fj6PGsl-4">
          <mxGeometry width="50" height="50" relative="1" as="geometry">
            <mxPoint x="390" y="330" as="sourcePoint" />
            <mxPoint x="440" y="280" as="targetPoint" />
          </mxGeometry>
        </mxCell>
        <mxCell id="HOlrTyPcvEbu_Fj6PGsl-11" value="" style="endArrow=none;html=1;rounded=0;entryX=0.5;entryY=1;entryDx=0;entryDy=0;" edge="1" parent="1" source="HOlrTyPcvEbu_Fj6PGsl-5" target="HOlrTyPcvEbu_Fj6PGsl-4">
          <mxGeometry width="50" height="50" relative="1" as="geometry">
            <mxPoint x="390" y="330" as="sourcePoint" />
            <mxPoint x="440" y="280" as="targetPoint" />
          </mxGeometry>
        </mxCell>
        <mxCell id="HOlrTyPcvEbu_Fj6PGsl-12" value="" style="endArrow=classic;html=1;rounded=0;entryX=0.5;entryY=0;entryDx=0;entryDy=0;exitX=0.5;exitY=1;exitDx=0;exitDy=0;" edge="1" parent="1" source="HOlrTyPcvEbu_Fj6PGsl-5" target="HOlrTyPcvEbu_Fj6PGsl-6">
          <mxGeometry width="50" height="50" relative="1" as="geometry">
            <mxPoint x="420" y="292" as="sourcePoint" />
            <mxPoint x="440" y="280" as="targetPoint" />
          </mxGeometry>
        </mxCell>
        <mxCell id="HOlrTyPcvEbu_Fj6PGsl-15" value="" style="endArrow=classic;html=1;rounded=0;entryX=0.5;entryY=0;entryDx=0;entryDy=0;exitX=0.5;exitY=1;exitDx=0;exitDy=0;" edge="1" parent="1" source="HOlrTyPcvEbu_Fj6PGsl-6" target="HOlrTyPcvEbu_Fj6PGsl-7">
          <mxGeometry width="50" height="50" relative="1" as="geometry">
            <mxPoint x="390" y="330" as="sourcePoint" />
            <mxPoint x="440" y="280" as="targetPoint" />
          </mxGeometry>
        </mxCell>
        <mxCell id="HOlrTyPcvEbu_Fj6PGsl-16" value="" style="endArrow=classic;html=1;rounded=0;exitX=0.5;exitY=1;exitDx=0;exitDy=0;" edge="1" parent="1" source="HOlrTyPcvEbu_Fj6PGsl-7" target="HOlrTyPcvEbu_Fj6PGsl-8">
          <mxGeometry width="50" height="50" relative="1" as="geometry">
            <mxPoint x="390" y="530" as="sourcePoint" />
            <mxPoint x="440" y="480" as="targetPoint" />
          </mxGeometry>
        </mxCell>
        <mxCell id="HOlrTyPcvEbu_Fj6PGsl-17" value="" style="endArrow=classic;html=1;rounded=0;exitX=0.5;exitY=1;exitDx=0;exitDy=0;entryX=0.5;entryY=0;entryDx=0;entryDy=0;" edge="1" parent="1" source="HOlrTyPcvEbu_Fj6PGsl-8" target="HOlrTyPcvEbu_Fj6PGsl-9">
          <mxGeometry width="50" height="50" relative="1" as="geometry">
            <mxPoint x="390" y="730" as="sourcePoint" />
            <mxPoint x="440" y="680" as="targetPoint" />
          </mxGeometry>
        </mxCell>
        <mxCell id="HOlrTyPcvEbu_Fj6PGsl-20" value="" style="endArrow=classic;startArrow=classic;html=1;rounded=0;entryX=1;entryY=0.5;entryDx=0;entryDy=0;exitX=1;exitY=0.5;exitDx=0;exitDy=0;" edge="1" parent="1" source="HOlrTyPcvEbu_Fj6PGsl-6" target="HOlrTyPcvEbu_Fj6PGsl-5">
          <mxGeometry width="50" height="50" relative="1" as="geometry">
            <mxPoint x="390" y="530" as="sourcePoint" />
            <mxPoint x="440" y="480" as="targetPoint" />
            <Array as="points">
              <mxPoint x="660" y="380" />
              <mxPoint x="660" y="320" />
              <mxPoint x="660" y="260" />
            </Array>
          </mxGeometry>
        </mxCell>
        <mxCell id="HOlrTyPcvEbu_Fj6PGsl-21" value="Prometheus" style="rounded=1;whiteSpace=wrap;html=1;" vertex="1" parent="1">
          <mxGeometry x="201" y="800" width="120" height="60" as="geometry" />
        </mxCell>
        <mxCell id="HOlrTyPcvEbu_Fj6PGsl-25" value="Grafana" style="rounded=1;whiteSpace=wrap;html=1;" vertex="1" parent="1">
          <mxGeometry x="500" y="800" width="120" height="60" as="geometry" />
        </mxCell>
        <mxCell id="HOlrTyPcvEbu_Fj6PGsl-26" value="" style="endArrow=classic;startArrow=classic;html=1;rounded=0;exitX=1;exitY=0.5;exitDx=0;exitDy=0;entryX=0;entryY=0.5;entryDx=0;entryDy=0;" edge="1" parent="1" source="HOlrTyPcvEbu_Fj6PGsl-21" target="HOlrTyPcvEbu_Fj6PGsl-25">
          <mxGeometry width="50" height="50" relative="1" as="geometry">
            <mxPoint x="390" y="730" as="sourcePoint" />
            <mxPoint x="440" y="680" as="targetPoint" />
          </mxGeometry>
        </mxCell>
        <mxCell id="HOlrTyPcvEbu_Fj6PGsl-27" value="AWS SSM / YAML" style="rounded=1;whiteSpace=wrap;html=1;" vertex="1" parent="1">
          <mxGeometry x="201" y="910" width="120" height="60" as="geometry" />
        </mxCell>
        <mxCell id="HOlrTyPcvEbu_Fj6PGsl-28" value="GitHub Actions CI/CD" style="rounded=1;whiteSpace=wrap;html=1;" vertex="1" parent="1">
          <mxGeometry x="474" y="910" width="150" height="60" as="geometry" />
        </mxCell>
      </root>
    </mxGraphModel>
  </diagram>
</mxfile>
